<mxfile host="app.diagrams.net" modified="2024-03-09T13:51:00.150Z" agent="Mozilla/5.0 (Windows NT 10.0; Win64; x64) AppleWebKit/537.36 (KHTML, like Gecko) Chrome/122.0.0.0 Safari/537.36 Edg/122.0.0.0" etag="x_1DgM7OkOOF87QXbjzv" version="24.0.4" type="github">
  <diagram name="Page-1" id="VGtMLJroqVfBJHBuWMG0">
    <mxGraphModel dx="595" dy="306" grid="0" gridSize="10" guides="1" tooltips="1" connect="1" arrows="1" fold="1" page="0" pageScale="1" pageWidth="827" pageHeight="1169" background="none" math="0" shadow="0">
      <root>
        <mxCell id="0" />
        <mxCell id="1" parent="0" />
      </root>
    </mxGraphModel>
  </diagram>
</mxfile>
